<?xml version="1.0" encoding="UTF-8"?>
<svg xmlns="http://www.w3.org/2000/svg" xmlns:xlink="http://www.w3.org/1999/xlink" width="183.25pt" height="201.91pt" viewBox="0 0 183.25 201.91" version="1.1">
<defs>
<clipPath id="clip1">
  <path d="M 0 138 L 183 138 L 183 201.910156 L 0 201.910156 Z M 0 138 "/>
</clipPath>
<clipPath id="clip2">
  <path d="M 3 0.0117188 L 180 0.0117188 L 180 135 L 3 135 Z M 3 0.0117188 "/>
</clipPath>
</defs>
<g id="surface1">
<path style="fill:none;stroke-width:30;stroke-linecap:butt;stroke-linejoin:miter;stroke:rgb(0%,65.098572%,31.399536%);stroke-opacity:1;stroke-miterlimit:4;" d="M 1717.5 91.951562 L 115 91.951562 L 115 546.951562 L 1717.5 546.951562 Z M 1717.5 91.951562 " transform="matrix(0.1,0,0,-0.1,0,201.91)"/>
<g clip-path="url(#clip1)" clip-rule="nonzero">
<path style="fill:none;stroke-width:30;stroke-linecap:butt;stroke-linejoin:miter;stroke:rgb(92.89856%,10.998535%,14.099121%);stroke-opacity:1;stroke-miterlimit:4;" d="M 1817.5 14.998437 L 15 14.998437 L 15 623.94375 L 1817.5 623.94375 Z M 1817.5 14.998437 " transform="matrix(0.1,0,0,-0.1,0,201.91)"/>
</g>
<path style=" stroke:none;fill-rule:nonzero;fill:rgb(92.89856%,10.998535%,14.099121%);fill-opacity:1;" d="M 24.933594 185.699219 L 24.933594 158.574219 L 30.433594 158.574219 L 30.433594 170.59375 L 41.539063 158.574219 L 48.90625 158.574219 L 38.652344 169.09375 L 49.40625 185.699219 L 42.269531 185.699219 L 34.8125 173.03125 L 30.433594 177.519531 L 30.433594 185.699219 L 24.933594 185.699219 "/>
<path style=" stroke:none;fill-rule:nonzero;fill:rgb(92.89856%,10.998535%,14.099121%);fill-opacity:1;" d="M 52.222656 185.699219 L 57.410156 185.699219 L 57.410156 180.515625 L 52.222656 180.515625 Z M 52.222656 185.699219 "/>
<path style=" stroke:none;fill-rule:nonzero;fill:rgb(92.89856%,10.998535%,14.099121%);fill-opacity:1;" d="M 62.808594 185.699219 L 62.808594 158.574219 L 68.308594 158.574219 L 68.308594 169.265625 L 79.058594 169.265625 L 79.058594 158.574219 L 84.558594 158.574219 L 84.558594 185.699219 L 79.058594 185.699219 L 79.058594 173.824219 L 68.308594 173.824219 L 68.308594 185.699219 L 62.808594 185.699219 "/>
<path style=" stroke:none;fill-rule:nonzero;fill:rgb(92.89856%,10.998535%,14.099121%);fill-opacity:1;" d="M 90.097656 185.699219 L 95.285156 185.699219 L 95.285156 180.515625 L 90.097656 180.515625 Z M 90.097656 185.699219 "/>
<path style=" stroke:none;fill-rule:nonzero;fill:rgb(92.89856%,10.998535%,14.099121%);fill-opacity:1;" d="M 99.242188 176.824219 L 104.554688 176.324219 C 104.875 178.109375 105.527344 179.421875 106.507813 180.257813 C 107.488281 181.097656 108.8125 181.515625 110.476563 181.515625 C 112.238281 181.515625 113.566406 181.140625 114.464844 180.398438 C 115.355469 179.652344 115.804688 178.78125 115.804688 177.785156 C 115.804688 177.144531 115.617188 176.601563 115.242188 176.152344 C 114.867188 175.703125 114.210938 175.3125 113.273438 174.980469 C 112.636719 174.761719 111.179688 174.367188 108.898438 173.800781 C 105.972656 173.074219 103.914063 172.183594 102.734375 171.121094 C 101.070313 169.625 100.242188 167.804688 100.242188 165.652344 C 100.242188 164.269531 100.636719 162.976563 101.417969 161.773438 C 102.199219 160.566406 103.332031 159.652344 104.808594 159.019531 C 106.28125 158.390625 108.0625 158.074219 110.148438 158.074219 C 113.554688 158.074219 116.117188 158.832031 117.84375 160.34375 C 119.5625 161.851563 120.46875 163.867188 120.554688 166.390625 L 115.054688 166.574219 C 114.820313 165.179688 114.320313 164.171875 113.550781 163.558594 C 112.78125 162.945313 111.628906 162.640625 110.089844 162.640625 C 108.503906 162.640625 107.257813 162.96875 106.359375 163.621094 C 105.78125 164.039063 105.492188 164.605469 105.492188 165.308594 C 105.492188 165.949219 105.765625 166.5 106.304688 166.957031 C 106.992188 167.539063 108.671875 168.144531 111.328125 168.769531 C 113.988281 169.394531 115.957031 170.046875 117.230469 170.71875 C 118.507813 171.394531 119.503906 172.3125 120.226563 173.480469 C 120.945313 174.648438 121.304688 176.089844 121.304688 177.808594 C 121.304688 179.363281 120.871094 180.820313 120.011719 182.179688 C 119.144531 183.539063 117.925781 184.550781 116.347656 185.210938 C 114.765625 185.871094 112.796875 186.199219 110.441406 186.199219 C 107.011719 186.199219 104.375 185.402344 102.535156 183.808594 C 100.699219 182.210938 99.597656 179.882813 99.242188 176.824219 "/>
<path style=" stroke:none;fill-rule:nonzero;fill:rgb(92.89856%,10.998535%,14.099121%);fill-opacity:1;" d="M 125.878906 185.699219 L 131.066406 185.699219 L 131.066406 180.515625 L 125.878906 180.515625 Z M 125.878906 185.699219 "/>
<path style=" stroke:none;fill-rule:nonzero;fill:rgb(92.89856%,10.998535%,14.099121%);fill-opacity:1;" d="M 153.898438 175.699219 L 159.214844 177.324219 C 158.394531 180.308594 157.039063 182.519531 155.140625 183.96875 C 153.242188 185.414063 150.835938 186.140625 147.914063 186.140625 C 144.304688 186.140625 141.339844 184.90625 139.015625 182.445313 C 136.6875 179.984375 135.523438 176.617188 135.523438 172.347656 C 135.523438 167.832031 136.695313 164.324219 139.03125 161.824219 C 141.371094 159.324219 144.445313 158.074219 148.257813 158.074219 C 151.585938 158.074219 154.289063 159.058594 156.367188 161.019531 C 157.605469 162.179688 158.53125 163.84375 159.148438 166.015625 L 153.714844 167.324219 C 153.390625 165.917969 152.71875 164.804688 151.691406 163.988281 C 150.671875 163.171875 149.425781 162.765625 147.964844 162.765625 C 145.9375 162.765625 144.300781 163.484375 143.039063 164.929688 C 141.777344 166.371094 141.148438 168.707031 141.148438 171.941406 C 141.148438 175.371094 141.769531 177.8125 143.011719 179.269531 C 144.253906 180.722656 145.863281 181.449219 147.851563 181.449219 C 149.316406 181.449219 150.574219 180.988281 151.632813 180.0625 C 152.6875 179.140625 153.441406 177.6875 153.898438 175.699219 "/>
<path style=" stroke:none;fill-rule:nonzero;fill:rgb(98.399353%,91.799927%,16.499329%);fill-opacity:1;" d="M 135.664063 113.144531 C 125.113281 125.0625 108.957031 132.6875 90.847656 132.6875 C 72.367188 132.6875 55.917969 124.746094 45.386719 112.402344 C 45.386719 112.402344 21.839844 120.410156 12.660156 110.261719 C 12.660156 110.261719 13.464844 106.398438 17.488281 101.566406 C 17.652344 101.40625 8.632813 98.023438 7.023438 95.605469 C 7.023438 95.605469 6.859375 93.675781 15.234375 86.105469 L 5.25 78.054688 L 15.074219 71.773438 C 15.074219 71.773438 8.46875 66.136719 8.148438 62.109375 C 7.988281 62.109375 11.851563 58.886719 20.390625 56.3125 C 20.390625 55.988281 14.109375 45.519531 14.109375 45.519531 L 27.636719 42.300781 C 27.636719 42.300781 23.609375 34.410156 24.414063 30.382813 C 24.414063 30.382813 32.789063 29.738281 37.78125 31.347656 C 37.78125 31.511719 36.976563 17.339844 36.976563 17.339844 L 51.148438 20.558594 C 51.148438 20.558594 51.148438 14.117188 53.082031 10.414063 C 52.761719 10.253906 61.777344 11.863281 65.480469 15.40625 C 65.644531 15.566406 70.472656 3.164063 70.472656 3.164063 L 80.460938 9.769531 C 80.460938 9.769531 85.453125 3.328125 90.121094 2.359375 C 90.28125 2.359375 96.40625 6.226563 99.625 14.277344 C 99.785156 14.277344 108.644531 2.039063 114.441406 2.359375 C 114.441406 2.359375 120.078125 7.835938 121.363281 13.957031 C 121.363281 13.957031 126.84375 10.734375 131.511719 11.058594 C 131.511719 11.058594 135.859375 15.726563 134.894531 22.972656 L 149.226563 20.238281 L 147.296875 32.476563 C 147.296875 32.476563 155.992188 32.152344 159.535156 33.925781 C 159.371094 33.925781 160.179688 40.207031 156.957031 45.359375 C 156.636719 45.683594 169.84375 48.421875 169.84375 48.421875 L 163.722656 59.371094 C 163.722656 59.371094 171.9375 61.949219 173.546875 64.847656 C 173.707031 65.167969 171.773438 70.324219 166.621094 74.027344 C 166.78125 74.027344 177.25 81.917969 177.25 81.917969 L 166.136719 89.488281 C 166.136719 89.488281 173.546875 94.800781 172.902344 99.3125 C 172.738281 99.472656 171.613281 101.890625 162.597656 104.789063 C 162.597656 105.109375 168.714844 113 167.585938 114.449219 C 167.265625 114.773438 149.710938 120.328125 136.585938 113.644531 C 136.664063 113.726563 135.664063 113.144531 135.664063 113.144531 "/>
<g clip-path="url(#clip2)" clip-rule="nonzero">
<path style=" stroke:none;fill-rule:nonzero;fill:rgb(0%,65.098572%,31.399536%);fill-opacity:1;" d="M 167.261719 89.492188 L 179.808594 81.984375 L 167.964844 73.5625 C 167.964844 73.5625 175.859375 67.703125 176.09375 64.226563 C 176.09375 64.226563 170.308594 60.234375 165.070313 59.171875 C 165.109375 59.171875 171.792969 47.820313 171.792969 47.820313 L 157.839844 44.671875 C 157.839844 44.671875 162.410156 34.675781 161.671875 32.699219 C 161.671875 32.699219 158.230469 31.820313 147.988281 32.332031 C 148.027344 32.296875 149.554688 19.296875 149.554688 19.296875 L 135.871094 21.714844 C 135.871094 21.714844 136.066406 11.789063 132.039063 9.484375 C 131.960938 9.484375 130.125 8.972656 122.109375 12.558594 C 122.109375 12.558594 118.945313 2.125 114.371094 0 C 114.332031 0 107.375 1.207031 99.753906 13.21875 C 99.753906 13.21875 95.179688 2.195313 89.824219 0.109375 C 89.824219 0.109375 86.464844 0.769531 81.265625 8.679688 C 81.222656 8.679688 70.984375 1.539063 70.984375 1.539063 L 65.433594 14.683594 C 65.433594 14.683594 58.007813 9.703125 53.039063 8.75 C 53.039063 8.714844 51.714844 9.921875 50.695313 19.847656 C 50.695313 19.882813 36.351563 16.625 36.351563 16.625 L 37.132813 29.621094 C 37.132813 29.621094 24.78125 29.257813 23.140625 30.136719 C 23.097656 30.171875 23.21875 33.980469 26.617188 41.484375 C 26.578125 41.523438 12.347656 45.074219 12.347656 45.074219 L 19.738281 55.546875 C 19.738281 55.546875 7.347656 58.550781 6.097656 61.699219 C 6.136719 61.734375 6.761719 65.945313 13.757813 71.476563 C 13.71875 71.476563 3.398438 77.738281 3.398438 77.738281 L 13.757813 86.34375 C 13.757813 86.34375 5.078125 93.445313 4.925781 95.753906 C 4.960938 95.863281 8.285156 99.964844 16.375 101.429688 C 16.375 101.429688 9.964844 110.070313 10.511719 111.753906 C 10.511719 111.792969 17.390625 120.617188 43.308594 113.328125 C 43.269531 113.328125 43.539063 113.648438 43.539063 113.648438 C 54.433594 126.605469 71.570313 134.957031 90.84375 134.957031 C 109.355469 134.957031 125.898438 127.246094 136.835938 115.148438 C 136.835938 115.148438 146.972656 122.019531 169.382813 116.308594 C 169.4375 116.355469 167.609375 109.71875 163.597656 105.128906 C 163.597656 105.128906 173.007813 102.746094 175.15625 100.183594 C 175.191406 100.183594 172.929688 93.628906 167.261719 89.492188 Z M 175.039063 81.582031 C 175.039063 81.582031 165.34375 87.695313 165.34375 87.625 C 163.230469 85.207031 151.976563 81.546875 151.976563 81.546875 C 160.847656 78.6875 165.8125 75.136719 165.8125 75.136719 Z M 172.691406 64.921875 C 172.691406 64.960938 167.769531 74.660156 150.449219 79.09375 C 150.371094 79.09375 150.410156 78.652344 150.410156 78.652344 C 150.1875 72.5 148.839844 66.609375 146.558594 61.136719 C 146.558594 61.136719 162.371094 57.964844 172.691406 64.921875 Z M 168.078125 49.46875 C 168.078125 49.46875 162.960938 58.402344 162.996094 58.332031 C 157.019531 56.902344 146.269531 58.074219 146.269531 58.074219 C 152.402344 53.898438 157.367188 46.796875 157.367188 46.796875 Z M 158.425781 34.824219 C 158.425781 34.859375 157.800781 47.125 144.078125 55.949219 C 144.078125 55.988281 143.953125 55.792969 143.953125 55.792969 C 141 50.507813 137.128906 45.726563 132.53125 41.617188 C 132.53125 41.617188 143.886719 32.441406 158.425781 34.824219 Z M 136.105469 23.910156 L 146.660156 22.59375 L 145.644531 32.554688 C 140.796875 33.871094 131.726563 38.191406 131.726563 38.191406 C 131.726563 38.191406 131.492188 38.046875 131.414063 37.972656 C 134.464844 30.796875 136.105469 23.910156 136.105469 23.910156 Z M 131.257813 12.046875 C 131.296875 12.082031 137.589844 20.175781 127.894531 37.824219 C 127.894531 37.898438 127.644531 37.699219 127.644531 37.699219 C 122.863281 34.265625 117.488281 31.484375 111.6875 29.503906 C 111.6875 29.503906 115.113281 15.636719 131.257813 12.046875 Z M 114.019531 2.78125 C 114.019531 2.78125 118.320313 5.96875 120.078125 13.804688 C 120.117188 13.878906 111.558594 19.808594 108.742188 28.414063 C 108.703125 28.414063 108.664063 28.597656 108.664063 28.597656 L 108.222656 28.429688 C 106.664063 28 105.085938 27.625 103.480469 27.308594 L 102.136719 17.320313 C 102.136719 17.320313 102.644531 9.445313 114.019531 2.78125 Z M 90.058594 2.84375 C 90.109375 2.792969 98.503906 9.042969 100.222656 26.695313 L 99.953125 26.714844 C 96.980469 26.296875 93.941406 26.082031 90.84375 26.082031 C 87.757813 26.082031 84.726563 26.296875 81.773438 26.710938 L 81.199219 26.863281 C 81.199219 26.863281 80.46875 10.507813 90.058594 2.84375 Z M 72.078125 5.480469 L 80.46875 11.242188 C 78.800781 13.878906 77.761719 25.203125 77.761719 25.203125 C 77.761719 25.203125 77.234375 25.304688 77.234375 25.253906 C 74.582031 21.101563 68.222656 15.734375 68.222656 15.734375 Z M 54.984375 11.582031 C 54.984375 11.535156 66.644531 15.121094 74.699219 27.976563 C 74.699219 28.011719 74.734375 28.121094 74.734375 28.121094 L 74.34375 28.195313 C 67.972656 29.867188 62.039063 32.484375 56.738281 35.867188 C 56.738281 35.867188 50.96875 24.03125 54.984375 11.582031 Z M 49.824219 21.984375 C 50.136719 26.085938 53.210938 35.996094 53.210938 35.996094 C 53.210938 35.996094 52.847656 36.191406 52.898438 36.140625 C 51.023438 33.113281 40.027344 29.402344 40.027344 29.402344 L 39.503906 19.832031 C 39.503906 19.832031 49.773438 22.03125 49.824219 21.984375 Z M 26.578125 32.234375 C 26.578125 32.234375 38.515625 29.304688 52.429688 38.828125 C 52.429688 38.972656 52.148438 39.113281 52.148438 39.113281 C 46.832031 43.261719 42.324219 48.246094 38.867188 53.847656 C 38.867188 53.847656 30.121094 45.757813 26.578125 32.234375 Z M 17.042969 46.46875 L 27.714844 44.015625 C 32.285156 52.179688 36.664063 55.292969 36.664063 55.292969 C 36.664063 55.292969 36.429688 55.621094 36.429688 55.585938 C 32.597656 53.863281 22.511719 55.109375 22.511719 55.109375 Z M 9.574219 62.429688 C 21.027344 55.363281 36.554688 58.007813 36.554688 58.007813 C 33.652344 63.839844 31.84375 70.21875 31.363281 76.933594 C 31.363281 76.933594 31.269531 77.042969 31.269531 77.003906 C 12.429688 70.195313 9.574219 62.429688 9.574219 62.429688 Z M 8.050781 77.992188 L 16.53125 73.015625 C 20.871094 76.164063 30.800781 79.679688 30.800781 79.679688 C 30.800781 79.679688 30.839844 80.007813 30.800781 79.972656 C 22.394531 81.253906 16.53125 84.730469 16.53125 84.730469 Z M 8.714844 95.460938 C 18.097656 83.230469 31.296875 83.015625 31.296875 83.015625 C 31.589844 88.90625 32.90625 94.558594 35.089844 99.816406 C 35.089844 99.816406 35.117188 99.957031 35.132813 100 C 12.3125 100.769531 8.753906 95.496094 8.714844 95.460938 Z M 41.511719 111.351563 C 20.324219 116.625 14.617188 111.5 14.695313 111.535156 C 12.820313 108.128906 21.300781 101.832031 21.339844 101.832031 C 25.054688 103.40625 36.65625 103.234375 36.65625 103.234375 C 38.042969 105.988281 39.671875 108.617188 41.519531 111.097656 C 41.519531 111.097656 41.511719 111.390625 41.511719 111.351563 Z M 90.84375 131.929688 C 59.753906 131.929688 34.550781 108.914063 34.550781 80.519531 C 34.550781 52.128906 59.753906 29.109375 90.84375 29.109375 C 121.929688 29.109375 147.128906 52.128906 147.128906 80.519531 C 147.128906 108.914063 121.929688 131.929688 90.84375 131.929688 Z M 166.320313 114.097656 C 166.320313 114.097656 147.871094 118.675781 138.726563 112.890625 C 138.6875 112.925781 138.996094 112.605469 138.996094 112.605469 C 140.933594 110.1875 142.65625 107.617188 144.140625 104.917969 C 144.140625 104.917969 152.910156 107.652344 161.941406 106.847656 C 161.980469 106.847656 166.320313 114.097656 166.320313 114.097656 Z M 145.484375 102.199219 C 145.484375 102.234375 145.699219 101.839844 145.699219 101.839844 C 148.257813 96.355469 149.859375 90.414063 150.3125 84.179688 C 150.3125 84.179688 164.988281 86.5625 172.261719 99.011719 C 172.261719 99.050781 163.390625 105.128906 145.484375 102.199219 "/>
</g>
<path style=" stroke:none;fill-rule:nonzero;fill:rgb(92.199707%,17.599487%,17.999268%);fill-opacity:1;" d="M 89.25 76.253906 L 89.25 31.421875 C 89.25 31.421875 83.75 31.503906 79.5 32.753906 C 79.417969 32.835938 89.25 76.253906 89.25 76.253906 "/>
<path style=" stroke:none;fill-rule:nonzero;fill:rgb(92.199707%,17.599487%,17.999268%);fill-opacity:1;" d="M 86.695313 77.132813 L 75.09375 33.824219 C 75.09375 33.824219 70.316406 35.191406 66.929688 37.394531 C 66.878906 37.492188 86.695313 77.132813 86.695313 77.132813 "/>
<path style=" stroke:none;fill-rule:nonzero;fill:rgb(92.199707%,17.599487%,17.999268%);fill-opacity:1;" d="M 84 78.867188 L 62.9375 39.289063 C 62.9375 39.289063 58.90625 41.527344 56.347656 44.304688 C 56.324219 44.414063 84 78.867188 84 78.867188 "/>
<path style=" stroke:none;fill-rule:nonzero;fill:rgb(92.199707%,17.599487%,17.999268%);fill-opacity:1;" d="M 82.800781 80.335938 L 53.445313 46.449219 C 53.445313 46.449219 50.101563 49.457031 48.292969 52.679688 C 48.296875 52.785156 82.800781 80.335938 82.800781 80.335938 "/>
<path style=" stroke:none;fill-rule:nonzero;fill:rgb(92.199707%,17.599487%,17.999268%);fill-opacity:1;" d="M 82.097656 81.792969 L 45.660156 55.972656 C 45.660156 55.972656 43.199219 59.589844 42.261719 63.066406 C 42.289063 63.167969 82.097656 81.792969 82.097656 81.792969 "/>
<path style=" stroke:none;fill-rule:nonzero;fill:rgb(92.199707%,17.599487%,17.999268%);fill-opacity:1;" d="M 81.695313 83.828125 L 40.183594 66.882813 C 40.183594 66.882813 38.558594 71.085938 38.402344 74.785156 C 38.453125 74.878906 81.695313 83.828125 81.695313 83.828125 "/>
<path style=" stroke:none;fill-rule:nonzero;fill:rgb(92.199707%,17.599487%,17.999268%);fill-opacity:1;" d="M 92.449219 76.253906 L 92.449219 31.421875 C 92.449219 31.421875 97.949219 31.503906 102.199219 32.753906 C 102.28125 32.835938 92.449219 76.253906 92.449219 76.253906 "/>
<path style=" stroke:none;fill-rule:nonzero;fill:rgb(92.199707%,17.599487%,17.999268%);fill-opacity:1;" d="M 95.003906 77.132813 L 106.605469 33.824219 C 106.605469 33.824219 111.386719 35.191406 114.769531 37.394531 C 114.820313 37.492188 95.003906 77.132813 95.003906 77.132813 "/>
<path style=" stroke:none;fill-rule:nonzero;fill:rgb(92.199707%,17.599487%,17.999268%);fill-opacity:1;" d="M 97.699219 78.867188 L 118.761719 39.289063 C 118.761719 39.289063 122.792969 41.527344 125.351563 44.304688 C 125.375 44.414063 97.699219 78.867188 97.699219 78.867188 "/>
<path style=" stroke:none;fill-rule:nonzero;fill:rgb(92.199707%,17.599487%,17.999268%);fill-opacity:1;" d="M 98.898438 80.335938 L 128.253906 46.449219 C 128.253906 46.449219 131.601563 49.457031 133.40625 52.679688 C 133.402344 52.785156 98.898438 80.335938 98.898438 80.335938 "/>
<path style=" stroke:none;fill-rule:nonzero;fill:rgb(92.199707%,17.599487%,17.999268%);fill-opacity:1;" d="M 99.597656 81.792969 L 136.039063 55.972656 C 136.039063 55.972656 138.5 59.589844 139.4375 63.066406 C 139.40625 63.167969 99.597656 81.792969 99.597656 81.792969 "/>
<path style=" stroke:none;fill-rule:nonzero;fill:rgb(92.199707%,17.599487%,17.999268%);fill-opacity:1;" d="M 100.007813 83.828125 L 141.515625 66.882813 C 141.515625 66.882813 143.140625 71.085938 143.300781 74.785156 C 143.246094 74.878906 100.007813 83.828125 100.007813 83.828125 "/>
<path style=" stroke:none;fill-rule:nonzero;fill:rgb(0%,65.098572%,31.399536%);fill-opacity:1;" d="M 49.445313 116.511719 C 49.445313 116.511719 71.511719 112.339844 90.003906 133.066406 C 89.902344 133.269531 106.078125 108.914063 134.136719 114.953125 C 135.394531 113.445313 135.710938 112.941406 135.710938 112.941406 C 135.710938 112.941406 111.546875 104.589844 89.792969 129.039063 C 90.003906 129.039063 70.460938 108.816406 47.871094 114.550781 C 47.765625 114.449219 49.445313 116.511719 49.445313 116.511719 "/>
<path style=" stroke:none;fill-rule:nonzero;fill:rgb(0%,65.098572%,31.399536%);fill-opacity:1;" d="M 147.269531 73.621094 C 147.269531 73.621094 127.566406 84.789063 89.742188 84.789063 C 89.664063 84.863281 47.898438 83.28125 34.183594 74.902344 C 34.183594 74.976563 34.027344 78.222656 34.027344 78.222656 C 34.027344 78.222656 41.511719 82.675781 65.628906 85.921875 C 65.628906 85.996094 41.984375 106.976563 41.984375 106.976563 L 42.195313 107.507813 C 42.195313 107.507813 76.421875 103.355469 90.371094 125.015625 C 90.453125 125.09375 108.972656 100.410156 140.492188 106.300781 C 140.648438 106.449219 115.90625 85.921875 115.90625 85.921875 C 115.90625 85.921875 139.785156 81.921875 147.507813 76.640625 C 147.585938 76.640625 147.269531 73.621094 147.269531 73.621094 Z M 133.871094 103.582031 C 133.871094 103.582031 110.941406 100.109375 90.53125 121.167969 C 90.53125 121.167969 78.945313 103.960938 47.582031 105.015625 C 47.503906 105.015625 69.015625 86.449219 69.015625 86.449219 C 69.015625 86.449219 83.28125 88.714844 112.4375 86.300781 C 112.4375 86.375 133.871094 103.582031 133.871094 103.582031 "/>
<path style=" stroke:none;fill-rule:nonzero;fill:rgb(100%,100%,100%);fill-opacity:1;" d="M 69.015625 86.449219 C 69.015625 86.449219 83.28125 88.714844 112.4375 86.300781 C 112.4375 86.375 133.871094 103.582031 133.871094 103.582031 C 133.871094 103.582031 110.941406 100.109375 90.53125 121.167969 C 90.53125 121.167969 78.945313 103.960938 47.582031 105.015625 C 47.503906 105.015625 69.015625 86.449219 69.015625 86.449219 "/>
<path style=" stroke:none;fill-rule:nonzero;fill:rgb(83.499146%,13.299561%,16.499329%);fill-opacity:1;" d="M 91.054688 89.042969 L 91.054688 87.386719 L 88.273438 87.394531 L 88.164063 90.371094 L 79.632813 87.089844 L 73.273438 86.726563 L 88.273438 91.84375 C 88.273438 91.84375 88.273438 95.757813 88.273438 95.71875 C 76.421875 89.363281 66.492188 89.4375 66.492188 89.4375 C 66.492188 89.4375 65.359375 90.652344 65.3125 90.601563 C 77.765625 91.066406 88.273438 97.808594 88.273438 97.808594 C 88.273438 97.808594 88.273438 100.066406 88.273438 100.132813 C 77.132813 92.230469 62.316406 92.925781 62.316406 92.925781 C 62.316406 92.925781 61.164063 94.269531 61.214844 94.320313 C 77.765625 94.011719 88.273438 102.304688 88.273438 102.304688 C 88.273438 102.304688 88.273438 106.0625 88.273438 106.128906 C 73.351563 96.101563 58.054688 96.574219 58.054688 96.574219 L 56.566406 97.886719 C 72.136719 98.296875 88.273438 108.179688 88.273438 108.179688 C 88.273438 108.179688 88.273438 112.535156 88.273438 112.601563 C 69.207031 96.746094 53.230469 100.511719 53.230469 100.511719 L 53.425781 101.980469 C 72.246094 99.191406 88.269531 114.71875 88.269531 114.71875 L 88.269531 119.96875 L 91.054688 120.046875 L 91.054688 114.207031 C 91.054688 114.207031 108.234375 98.96875 128.410156 101.707031 L 128.617188 100.261719 C 128.617188 100.261719 111.492188 96.566406 91.054688 112.128906 C 91.054688 112.066406 91.054688 107.789063 91.054688 107.789063 C 91.054688 107.789063 103.03125 93.390625 120.105469 96.902344 L 120.316406 95.5625 C 120.316406 95.5625 105.867188 91.511719 91.054688 105.777344 C 91.054688 105.714844 91.054688 100.25 91.054688 100.25 C 91.054688 100.25 107.5 90.808594 116.113281 92.511719 C 116.167969 92.464844 116.167969 91.222656 116.167969 91.222656 C 116.167969 91.222656 110.335938 88.773438 91.054688 98.339844 C 91.054688 98.273438 91.054688 95.339844 91.054688 95.339844 C 91.054688 95.339844 108.074219 87.089844 114.90625 89.515625 C 114.855469 89.566406 114.804688 88.277344 114.804688 88.277344 C 114.804688 88.277344 105.554688 86.082031 91.054688 93.738281 C 91.054688 93.777344 91.054688 90.539063 91.054688 90.539063 L 99.832031 87.089844 L 94.996094 87.089844 L 91.054688 89.042969 L 91.054688 87.386719 "/>
</g>
</svg>
