<?xml version="1.0"?>
<svg version="1.1" xmlns="http://www.w3.org/2000/svg" width="255" height="247" style=""><path fill="#7d7373" d="M16.32275390625,141.5986328125q-0.02099609375-0.6298828125-0.02099609375-1.259765625q0-1.9736328125,0.2099609375-3.96826171875q0.251953125-2.6455078125,0.3359375-5.20703125q0.083984375-3.00244140625,0.251953125-6.23583984375q0.10498046875-1.763671875,0.10498046875-3.4853515625q0-1.40673828125-0.06298828125-2.79248046875q0.2099609375-0.48291015625,0.556396484375-0.65087890625t0.871337890625-0.16796875q0.251953125,0,0.535400390625,0.0419921875t0.493408203125,0.2099609375q0.2939453125,0.0419921875,0.724365234375,0.083984375t0.661376953125,0.251953125q0.083984375,0.1259765625,0.430419921875,0.86083984375t0.81884765625,1.78466796875t0.98681640625,2.278076171875t0.98681640625,2.33056640625t0.81884765625,1.942138671875t0.430419921875,1.0498046875q1.9736328125-3.5693359375,3.86328125-7.338134765625t4.13623046875-7.107177734375q0.2099609375-0.2939453125,0.724365234375-0.430419921875t0.850341796875-0.136474609375q0.90283203125,0,1.312255859375,0.430419921875t0.535400390625,1.102294921875q0.083984375,0.419921875,0.10498046875,0.90283203125q0.02099609375,0.251953125-0.02099609375,0.52490234375q-0.083984375,0.77685546875-0.083984375,1.4697265625q0,4.89208984375-0.3359375,9.710693359375t-0.60888671875,9.731689453125q-0.0419921875,1.0078125-0.0419921875,2.099609375t0.0419921875,2.267578125q0.02099609375,0.419921875,0.02099609375,0.81884765625q0,1.84765625-0.31494140625,3.443359375q-0.2939453125,0.48291015625-0.9658203125,0.60888671875t-1.1337890625,0.1259765625q-0.98681640625,0-1.8896484375-0.4619140625l-0.23095703125-0.27294921875l-0.083984375-0.3359375t-0.0419921875-0.3359375q0-3.04443359375,0.220458984375-6.130859375t0.493408203125-6.162353515625t0.577392578125-6.141357421875t0.514404296875-6.130859375q-1.23876953125,2.0576171875-2.404052734375,4.188720703125t-2.194091796875,4.335693359375q-0.3779296875,0.86083984375-0.724365234375,1.84765625t-0.829345703125,1.763671875q-0.251953125,0.3779296875-0.850341796875,0.4619140625t-1.039306640625,0.083984375q-0.419921875,0-0.871337890625-0.14697265625t-0.619384765625-0.6298828125q-0.77685546875-2.37255859375-1.65869140625-4.64013671875t-1.78466796875-4.59814453125q0,1.5537109375,0.06298828125,4.020751953125t0.06298828125,5.112548828125t-0.083984375,5.06005859375t-0.39892578125,3.8212890625q-0.083984375,0.52490234375-0.682373046875,0.65087890625t-1.039306640625,0.1259765625q-0.3359375,0-0.640380859375-0.0419921875t-0.598388671875-0.16796875z M40.839262695312,137.5673828125q0-1.19677734375,0.304443359375-2.467041015625t0.9658203125-2.28857421875t1.669189453125-1.65869140625t2.435546875-0.640380859375q1.07080078125,0,2.257080078125,0.367431640625t2.173095703125,1.0498046875t1.606201171875,1.669189453125t0.619384765625,2.20458984375q0,1.4697265625-0.535400390625,2.79248046875t-1.501220703125,2.362060546875t-2.257080078125,1.6376953125t-2.802978515625,0.598388671875q-1.23876953125,0-2.16259765625-0.451416015625t-1.543212890625-1.207275390625t-0.923828125-1.78466796875t-0.304443359375-2.18359375z M43.925688476562,137.525390625q0,0.3779296875,0.115478515625,1.11279296875t0.346435546875,1.438232421875t0.598388671875,1.2177734375t0.892333984375,0.472412109375q1.11279296875-0.1259765625,1.837158203125-0.724365234375t1.17578125-1.459228515625t0.6298828125-1.86865234375t0.178466796875-1.91064453125q0-1.15478515625-0.451416015625-1.931640625t-1.480224609375-1.259765625q0,0.0419921875,0.0419921875,0.0419921875t0.0419921875-0.0419921875l-0.52490234375-0.1259765625q-0.2099609375-0.083984375-0.514404296875-0.18896484375t-0.598388671875-0.4619140625q-0.81884765625,0.2939453125-1.270263671875,0.755859375t-0.682373046875,1.123291015625t-0.283447265625,1.585205078125t-0.052490234375,2.2255859375z M56.768369140625,137.2734375l0-0.60888671875q0-0.755859375,0.0419921875-1.427734375q0.0419921875-0.94482421875,0.0419921875-1.5537109375q0-0.3359375,0.0419921875-0.766357421875t0.2099609375-0.682373046875q0.2099609375-0.2099609375,0.493408203125-0.430419921875t0.619384765625-0.220458984375q1.07080078125,0,1.6796875,0.241455078125t0.65087890625,0.997314453125l0.083984375,0.65087890625q0.3779296875-0.90283203125,1.0078125-2.236083984375t1.459228515625-2.54052734375t1.86865234375-2.0576171875t2.194091796875-0.850341796875q1.07080078125,0,1.763671875,1.0078125t1.102294921875,2.572021484375t0.577392578125,3.4853515625t0.23095703125,3.768798828125t0.083984375,3.369873046875t0.14697265625,2.299072265625q0.083984375,0.65087890625,0.283447265625,1.375244140625t0.199462890625,1.333251953125q0,0.16796875-0.241455078125,0.325439453125t-0.514404296875,0.262451171875t-0.556396484375,0.16796875t-0.409423828125,0.06298828125q-0.81884765625,0-1.165283203125-1.228271484375t-0.430419921875-3.075927734375t-0.083984375-3.999755859375t-0.14697265625-3.999755859375t-0.598388671875-3.075927734375t-1.438232421875-1.270263671875q-0.90283203125,0-1.86865234375,1.165283203125t-1.65869140625,3.096923828125q-0.671875,1.931640625-0.923828125,4.38818359375q-0.083984375,0.77685546875-0.083984375,1.5537109375q0,1.70068359375,0.35693359375,3.4013671875q0.0419921875,0.2939453125-0.241455078125,0.44091796875t-0.703369140625,0.23095703125t-0.850341796875,0.10498046875t-0.661376953125,0.02099609375q-0.81884765625,0-1.312255859375-0.577392578125t-0.766357421875-1.480224609375t-0.367431640625-2.026123046875t-0.115478515625-2.215087890625z M75.846889648437,131.75146484375q0-0.86083984375,0.50390625-1.480224609375t1.228271484375-1.0078125t1.585205078125-0.577392578125t1.595703125-0.18896484375q0.56689453125,0,1.51171875,0.16796875t1.84765625,0.50390625t1.564208984375,0.8818359375t0.661376953125,1.28076171875q0,0.3359375-0.251953125,0.598388671875t-0.52490234375,0.262451171875q-0.56689453125,0-1.02880859375-0.367431640625t-0.955322265625-0.77685546875t-1.081298828125-0.77685546875t-1.32275390625-0.367431640625t-1.333251953125,0.472412109375t-0.598388671875,1.249267578125q0,1.28076171875,0.90283203125,2.509033203125t1.984130859375,2.58251953125t1.984130859375,2.844970703125t0.90283203125,3.29638671875q0,0.77685546875-0.325439453125,1.312255859375t-0.86083984375,0.871337890625t-1.207275390625,0.514404296875t-1.3017578125,0.178466796875q-0.69287109375,0-1.61669921875-0.325439453125t-1.74267578125-0.86083984375t-1.375244140625-1.249267578125t-0.556396484375-1.49072265625q0-0.3779296875,0.535400390625-0.48291015625t0.787353515625-0.10498046875q0.1259765625,0,0.388427734375,0.083984375t0.514404296875,0.18896484375t0.451416015625,0.23095703125t0.157470703125,0.27294921875q0.2099609375,0.251953125,0.640380859375,0.745361328125t0.86083984375,0.7978515625t0.755859375,0.220458984375t0.325439453125-0.94482421875q0-1.6376953125-0.8818359375-3.012939453125t-1.921142578125-2.6875t-1.921142578125-2.603515625t-0.8818359375-2.760986328125z M89.7813671875,135.32080078125q0-0.419921875,0.094482421875-1.11279296875t0.220458984375-1.375244140625t0.2939453125-1.270263671875t0.39892578125-0.755859375q0.16796875-0.16796875,0.577392578125-0.3359375t0.86083984375-0.241455078125t0.83984375,0.06298828125t0.472412109375,0.556396484375q-0.2939453125,0.3779296875-0.535400390625,1.291259765625t-0.367431640625,2.026123046875q-0.10498046875,0.94482421875-0.10498046875,1.95263671875l0,0.35693359375q0.02099609375,1.17578125,0.2099609375,2.16259765625t0.577392578125,1.627197265625t1.081298828125,0.640380859375q1.4697265625,0,2.6875-1.354248046875t2.16259765625-3.306884765625t1.65869140625-4.146728515625t1.2177734375-3.831787109375q0.1259765625-0.48291015625,0.598388671875-0.65087890625t1.018310546875-0.115478515625t0.976318359375,0.262451171875t0.514404296875,0.50390625q-0.419921875,3.52734375-0.661376953125,7.0546875t-0.241455078125,7.0966796875q0,0.69287109375,0.06298828125,1.270263671875t-0.06298828125,0.98681640625t-0.556396484375,0.65087890625t-1.375244140625,0.241455078125q-0.2099609375,0-0.535400390625-0.0419921875t-0.671875-0.136474609375t-0.587890625-0.283447265625t-0.241455078125-0.44091796875q0-1.5537109375,0.115478515625-3.19140625t0.325439453125-3.17041015625q-0.56689453125,0.81884765625-1.249267578125,1.627197265625t-1.501220703125,1.459228515625t-1.763671875,1.039306640625t-2.03662109375,0.388427734375q-1.5537109375,0-2.446044921875-0.73486328125t-1.34375-1.837158203125t-0.56689453125-2.404052734375t-0.115478515625-2.51953125z M109.53176269531,131.28955078125q0-0.86083984375,0.304443359375-1.44873046875t1.291259765625-0.587890625q0.3779296875,0,0.94482421875,0.115478515625t0.65087890625,0.577392578125q0.2099609375,1.23876953125,0.23095703125,2.6875t0.14697265625,2.7294921875q0.48291015625-0.94482421875,1.23876953125-2.03662109375t1.7216796875-2.015625t2.099609375-1.53271484375t2.3095703125-0.60888671875q0.083984375,0,0.31494140625,0.06298828125t0.430419921875,0.178466796875t0.241455078125,0.262451171875t-0.23095703125,0.27294921875q-0.083984375,0.251953125-0.35693359375,0.304443359375t-0.48291015625,0.052490234375q-0.1259765625,0-0.39892578125-0.10498046875q-1.5537109375,0.81884765625-2.6455078125,2.2255859375t-1.78466796875,3.117919921875t-1.0078125,3.611328125t-0.31494140625,3.705810546875q0,0.90283203125-0.409423828125,1.091796875t-1.312255859375,0.18896484375q-0.48291015625,0-1.018310546875-0.10498046875t-0.745361328125-0.671875q-0.3779296875-1.19677734375-0.619384765625-2.75048828125t-0.367431640625-3.201904296875t-0.178466796875-3.243896484375t-0.052490234375-2.87646484375z"/><path fill="#7d7373" d="M137.43929199219,120.10083007812q-0.0380859375-0.504638671875,0.085693359375-0.9521484375t0.466552734375-0.74267578125t1.16162109375-0.295166015625q0.1904296875,0,0.466552734375,0.0380859375t0.55224609375,0.123779296875t0.447509765625,0.238037109375t0.17138671875,0.4189453125q0,0.70458984375,0.047607421875,1.856689453125t0.123779296875,2.3994140625t0.142822265625,2.4375t0.123779296875,1.932861328125q1.4853515625-0.076171875,2.98974609375-0.076171875t2.970703125-0.076171875l2.6279296875-0.076171875l0-1.88525390625q0-3.1611328125-0.123779296875-6.331787109375t-0.428466796875-6.331787109375q0-0.228515625,0.1904296875-0.371337890625t0.447509765625-0.218994140625t0.533203125-0.09521484375t0.428466796875-0.01904296875q0.43798828125,0,0.942626953125,0.13330078125t0.580810546875,0.5712890625l0.1142578125,0.81884765625q0.47607421875,3.427734375,0.6474609375,6.779296875t0.24755859375,6.703125q0.228515625,0.0380859375,0.485595703125,0.123779296875t0.523681640625,0.161865234375q0.1904296875,0.076171875,0.542724609375,0.228515625t0.352294921875,0.47607421875q0,0.3046875-0.2666015625,0.47607421875t-0.599853515625,0.257080078125t-0.6474609375,0.104736328125t-0.390380859375,0.01904296875q0.0380859375,1.4091796875,0.0380859375,2.808837890625l0,2.808837890625l0,6.15087890625l0,3.427734375q0,0.228515625-0.218994140625,0.409423828125t-0.523681640625,0.295166015625t-0.637939453125,0.15234375t-0.599853515625,0.0380859375t-0.62841796875-0.0380859375t-0.6474609375-0.15234375t-0.504638671875-0.28564453125t-0.218994140625-0.4189453125l0-0.81884765625q0.076171875-3.6181640625,0.17138671875-7.169677734375t0.1904296875-7.131591796875q-2.07568359375,0.076171875-4.218017578125,0.09521484375t-4.256103515625,0.09521484375q0.228515625,2.68505859375,0.523681640625,5.360595703125t0.618896484375,5.360595703125q0,0.228515625-0.218994140625,0.409423828125t-0.51416015625,0.295166015625t-0.62841796875,0.15234375t-0.599853515625,0.0380859375q-0.55224609375,0-1.209228515625-0.1904296875t-0.733154296875-0.70458984375q-0.228515625-2.0185546875-0.428466796875-4.4560546875t-0.352294921875-4.979736328125t-0.238037109375-4.979736328125t-0.085693359375-4.41796875q0-0.47607421875-0.0380859375-0.980712890625z M159.19912109375,135.43994140625q0-1.751953125,0.409423828125-3.437255859375t0.695068359375-3.361083984375q0.076171875-0.43798828125,0.599853515625-0.542724609375t0.885498046875-0.104736328125q0.62841796875,0,1.00927734375,0.1904296875q0.15234375,0.076171875,0.28564453125,0.17138671875t0.13330078125,0.24755859375q0,1.6376953125-0.390380859375,3.19921875t-0.390380859375,3.3134765625q0,0.59033203125,0.085693359375,1.114013671875t0.161865234375,1.037841796875l0.1142578125,0.55224609375q0,0.15234375,0.01904296875,0.2666015625t0.05712890625,0.2666015625q0,0.3427734375-0.485595703125,0.466552734375t-0.847412109375,0.123779296875q-0.55224609375,0-1.018798828125-0.218994140625t-0.733154296875-0.752197265625l-0.2666015625-0.55224609375q-0.228515625-0.43798828125-0.228515625-0.980712890625t-0.09521484375-0.999755859375z M160.41787109375,123.97607421875l0-0.36181640625q0-0.89501953125,0.447509765625-1.599609375t1.342529296875-0.70458984375q0.1142578125,0,0.218994140625,0.01904296875t0.218994140625,0.01904296875q0.228515625,0.0380859375,0.599853515625,0.180908203125t0.371337890625,0.447509765625l0,0.0380859375q-0.076171875,0.15234375-0.09521484375,0.314208984375t-0.09521484375,0.276123046875l0.0380859375-0.0380859375q-0.228515625,0.59033203125-0.371337890625,0.9521484375t-0.314208984375,0.580810546875t-0.428466796875,0.314208984375t-0.733154296875,0.09521484375q-0.076171875,0-0.2666015625-0.01904296875t-0.409423828125-0.076171875t-0.371337890625-0.15234375t-0.15234375-0.28564453125z M167.51461425781,142.6572265625q0-0.55224609375,0.047607421875-1.16162109375t0.085693359375-1.142578125l0.1142578125-2.8564453125q0.1904296875-3.427734375,0.466552734375-6.7412109375t0.466552734375-6.703125q0.1142578125-1.8662109375,0.17138671875-3.665771484375t0.17138671875-3.665771484375q-0.076171875-0.15234375-0.076171875-0.20947265625q0-0.2666015625,0.199951171875-0.4189453125t0.466552734375-0.257080078125t0.561767578125-0.142822265625t0.447509765625-0.0380859375l0.43798828125,0q0.59033203125,0.076171875,0.85693359375,0.371337890625t0.3427734375,0.70458984375t0.0380859375,0.8759765625t-0.0380859375,0.866455078125q0,2.76123046875-0.13330078125,5.627197265625t-0.3046875,5.7509765625t-0.314208984375,5.77001953125t-0.142822265625,5.703369140625l0,1.3330078125q0,0.89501953125-0.504638671875,1.1806640625t-1.399658203125,0.28564453125q-0.78076171875,0-1.37109375-0.3427734375t-0.59033203125-1.12353515625z M176.24905273437,142.6572265625q0-0.55224609375,0.047607421875-1.16162109375t0.085693359375-1.142578125l0.1142578125-2.8564453125q0.1904296875-3.427734375,0.466552734375-6.7412109375t0.466552734375-6.703125q0.1142578125-1.8662109375,0.17138671875-3.665771484375t0.17138671875-3.665771484375q-0.076171875-0.15234375-0.076171875-0.20947265625q0-0.2666015625,0.199951171875-0.4189453125t0.466552734375-0.257080078125t0.561767578125-0.142822265625t0.447509765625-0.0380859375l0.43798828125,0q0.59033203125,0.076171875,0.85693359375,0.371337890625t0.3427734375,0.70458984375t0.0380859375,0.8759765625t-0.0380859375,0.866455078125q0,2.76123046875-0.13330078125,5.627197265625t-0.3046875,5.7509765625t-0.314208984375,5.77001953125t-0.142822265625,5.703369140625l0,1.3330078125q0,0.89501953125-0.504638671875,1.1806640625t-1.399658203125,0.28564453125q-0.78076171875,0-1.37109375-0.3427734375t-0.59033203125-1.12353515625z M184.98349121094,135.89697265625q0-1.294921875,0.352294921875-2.49462890625t1.056884765625-2.142333984375t1.761474609375-1.50439453125t2.447021484375-0.561767578125q0.85693359375,0,1.894775390625,0.257080078125t1.951904296875,0.76171875t1.5234375,1.285400390625t0.609375,1.7900390625q0,0.47607421875-0.161865234375,0.7236328125t-0.656982421875,0.24755859375l-0.20947265625-0.0380859375q0.55224609375,1.4853515625,0.9521484375,3.046875t0.78076171875,3.123046875q0.15234375,0.3046875,0.228515625,0.542724609375t0.076171875,0.466552734375q0,0.3046875-0.17138671875,0.504638671875t-0.447509765625,0.295166015625t-0.5712890625,0.13330078125t-0.523681640625,0.0380859375q-0.81884765625,0-1.228271484375-0.28564453125t-0.59033203125-0.78076171875t-0.218994140625-1.114013671875t-0.15234375-1.247314453125q-0.228515625,0.74267578125-0.599853515625,1.447265625t-0.8759765625,1.266357421875t-1.190185546875,0.89501953125t-1.54248046875,0.333251953125q-1.2568359375,0-2.11376953125-0.7236328125t-1.380615234375-1.780517578125t-0.76171875-2.256591796875t-0.238037109375-2.22802734375z M187.68759277344,135.63037109375q0,0.70458984375,0.09521484375,1.4853515625t0.314208984375,1.54248046875t0.561767578125,1.437744140625t0.85693359375,1.190185546875q0.93310546875-1.00927734375,1.380615234375-2.45654296875t0.7998046875-2.789794921875t0.7998046875-2.30419921875t1.380615234375-0.961669921875q0.59033203125,0,0.990234375,0.20947265625q-0.1904296875-0.47607421875-0.62841796875-0.923583984375t-0.980712890625-0.81884765625t-1.12353515625-0.609375t-1.094970703125-0.238037109375q-0.15234375,0-0.352294921875,0.047607421875t-0.314208984375,0.009521484375q-0.78076171875,0.228515625-1.285400390625,0.790283203125t-0.81884765625,1.323486328125t-0.447509765625,1.5615234375t-0.13330078125,1.50439453125z M201.4874609375,130.98388671875q0-0.78076171875,0.45703125-1.342529296875t1.114013671875-0.9140625t1.437744140625-0.523681640625t1.447265625-0.17138671875q0.51416015625,0,1.37109375,0.15234375t1.67578125,0.45703125t1.418701171875,0.7998046875t0.599853515625,1.16162109375q0,0.3046875-0.228515625,0.542724609375t-0.47607421875,0.238037109375q-0.51416015625,0-0.93310546875-0.333251953125t-0.866455078125-0.70458984375t-0.980712890625-0.70458984375t-1.19970703125-0.333251953125t-1.209228515625,0.428466796875t-0.542724609375,1.133056640625q0,1.16162109375,0.81884765625,2.275634765625t1.799560546875,2.34228515625t1.799560546875,2.580322265625t0.81884765625,2.98974609375q0,0.70458984375-0.295166015625,1.190185546875t-0.78076171875,0.790283203125t-1.094970703125,0.466552734375t-1.1806640625,0.161865234375q-0.62841796875,0-1.46630859375-0.295166015625t-1.58056640625-0.78076171875t-1.247314453125-1.133056640625t-0.504638671875-1.35205078125q0-0.3427734375,0.485595703125-0.43798828125t0.714111328125-0.09521484375q0.1142578125,0,0.352294921875,0.076171875t0.466552734375,0.17138671875t0.409423828125,0.20947265625t0.142822265625,0.24755859375q0.1904296875,0.228515625,0.580810546875,0.676025390625t0.78076171875,0.7236328125t0.685546875,0.199951171875t0.295166015625-0.85693359375q0-1.4853515625-0.7998046875-2.732666015625t-1.742431640625-2.4375t-1.742431640625-2.361328125t-0.7998046875-2.504150390625z"/></svg>
